{"title":"Entrapment*1999*[BluRay][1080p][ENG, POL]","uid":5926919,"size":7823809181,"categoryP":"video","categoryS":"hd___movies","magnet":"?xt=urn:btih:6a770f21670da6448866500fdcddab5474b43549&amp;dn=Entrapment%2A1999%2A%5BBluRay%5D%5B1080p%5D%5BENG%2C+POL%5D&amp;tr=udp%3A%2F%2Ftracker.openbittorrent.com%3A80&amp;tr=udp%3A%2F%2Fopen.demonii.com%3A1337&amp;tr=udp%3A%2F%2Ftracker.coppersurfer.tk%3A6969&amp;tr=udp%3A%2F%2Fexodus.desync.com%3A6969","seeders":2,"leechers":0,"uploader":"albedo040","files":1,"time":1288633056,"description":"Entrapment*1999*[BluRay][1080p][ENG, POL]\n\nGeneral information:\nCountry: USA, UK, Germany \nRelease: 29 April 1999\nGenre: Action, Crime, Romance, Thriller \nDirector: Jon Amiel\nScreenplay: Ron Bass, William Broyles\nOriginal Music: Christopher Young\nCinematography by: Phil Meheux\nDuration: 1h 52mn\nLanguage: English, Polish\nSubtitles: English, Polish\nRating: 7.4/10 - 6450 votes \n\nCast:\nSean Connery  ...  Robert MacDougal  \nCatherine Zeta-Jones  ...  Virginia Baker  \nVing Rhames  ...  Aaron Thibadeaux  \nWill Patton  ...  Hector Cruz  \nMaury Chaykin  ...  Conrad Greene  \nKevin McNally  ...  Haas  \nTerry O'Neill  ...  Quinn  \nMadhav Sharma  ...  Security Chief  \nDavid Yip  ...  Chief of Police  \nTim Potter  ...  Millennium Man  \nEric Meyers  ...  Waverly Technician  \nAaron Swartz  ...  Cruz's Man  \nWilliam Marsh  ...  Computer Technician  \nTony Xu  ...  Banker  \nRolf Saxon  ...  Director  \n\nPlot:\nAn insurance agent is sent by her employer to track down and help capture an art thief. \n\nSpecifications:\nGeneral\nFormat                           : Matroska\nOverall bit rate                 : 9 238 Kbps\n\nVideo\nFormat                           : AVC\nFormat/Info                      : Advanced Video Codec\nFormat profile                   : &lt;a class=&quot;__cf_email__&quot; href=&quot;/cdn-cgi/l/email-protection&quot; data-cfemail=&quot;125f737b7c525e263c22&quot;&gt;[email&amp;#160;protected]&lt;/a&gt;&lt;script cf-hash='f9e31' type=&quot;text/javascript&quot;&gt;\n/* &lt;![CDATA[ */!function(){try{var t=&quot;currentScript&quot;in document?document.currentScript:function(){for(var t=document.getElementsByTagName(&quot;script&quot;),e=t.length;e--;)if(t[e].getAttribute(&quot;cf-hash&quot;))return t[e]}();if(t&amp;&amp;t.previousSibling){var e,r,n,i,c=t.previousSibling,a=c.getAttribute(&quot;data-cfemail&quot;);if(a){for(e=&quot;&quot;,r=parseInt(a.substr(0,2),16),n=2;a.length-n;n+=2)i=parseInt(a.substr(n,2),16)^r,e+=String.fromCharCode(i);e=document.createTextNode(e),c.parentNode.replaceChild(e,c)}}}catch(u){}}();/* ]]&gt; */&lt;/script&gt;\nFormat settings, CABAC           : Yes\nFormat settings, ReFrames        : 3 frames\nFormat settings, GOP             : M=4, N=16\nMuxing mode                      : Container profile=&lt;a class=&quot;__cf_email__&quot; href=&quot;/cdn-cgi/l/email-protection&quot; data-cfemail=&quot;9cc9f2f7f2f3ebf2dca8b2ac&quot;&gt;[email&amp;#160;protected]&lt;/a&gt;&lt;script cf-hash='f9e31' type=&quot;text/javascript&quot;&gt;\n/* &lt;![CDATA[ */!function(){try{var t=&quot;currentScript&quot;in document?document.currentScript:function(){for(var t=document.getElementsByTagName(&quot;script&quot;),e=t.length;e--;)if(t[e].getAttribute(&quot;cf-hash&quot;))return t[e]}();if(t&amp;&amp;t.previousSibling){var e,r,n,i,c=t.previousSibling,a=c.getAttribute(&quot;data-cfemail&quot;);if(a){for(e=&quot;&quot;,r=parseInt(a.substr(0,2),16),n=2;a.length-n;n+=2)i=parseInt(a.substr(n,2),16)^r,e+=String.fromCharCode(i);e=document.createTextNode(e),c.parentNode.replaceChild(e,c)}}}catch(u){}}();/* ]]&gt; */&lt;/script&gt;\nCodec ID                         : V_MPEG4/ISO/AVC\nBit rate                         : 6 202 Kbps\nWidth                            : 1 920 pixels\nHeight                           : 1 080 pixels\nDisplay aspect ratio             : 16:9\nFrame rate                       : 23.976 fps\n\nAudio 1\nFormat                           : DTS\nFormat/Info                      : Digital Theater Systems\nCodec ID                         : A_DTS\nBit rate mode                    : Constant\nBit rate                         : 1 510 Kbps\nChannel(s)                       : 6 channels\nChannel positions                : Front: L C R, Side: L R, LFE\nSampling rate                    : 48.0 KHz\nBit depth                        : 24 bits\nStream size                      : 1.19 GiB (16%)\nTitle                            : English\n\nAudio 2\nFormat                           : DTS\nFormat/Info                      : Digital Theater Systems\nCodec ID                         : A_DTS\nBit rate mode                    : Constant\nBit rate                         : 1 510 Kbps\nChannel(s)                       : 6 channels\nChannel positions                : Front: L C R, Side: L R, LFE\nSampling rate                    : 48.0 KHz\nBit depth                        : 24 bits\nStream size                      : 1.19 GiB (16%)\nTitle                            : Polish\nLanguage                         : Polish\n\nText 1\nFormat                           : UTF-8\nCodec ID                         : S_TEXT/UTF8\nCodec ID/Info                    : UTF-8 Plain Text\nTitle                            : English\n\nText 2\nFormat                           : UTF-8\nCodec ID                         : S_TEXT/UTF8\nCodec ID/Info                    : UTF-8 Plain Text\nTitle                            : Polish\n","torrent":{"xt":"urn:btih:6a770f21670da6448866500fdcddab5474b43549","amp;dn":"Entrapment%2A1999%2A%5BBluRay%5D%5B1080p%5D%5BENG%2C+POL%5D","amp;tr":["udp%3A%2F%2Ftracker.openbittorrent.com%3A80","udp%3A%2F%2Fopen.demonii.com%3A1337","udp%3A%2F%2Ftracker.coppersurfer.tk%3A6969","udp%3A%2F%2Fexodus.desync.com%3A6969"],"infoHash":"6a770f21670da6448866500fdcddab5474b43549","infoHashBuffer":{"type":"Buffer","data":[106,119,15,33,103,13,166,68,136,102,80,15,220,221,171,84,116,180,53,73]},"announce":[],"urlList":[]}}